<mxfile host="app.diagrams.net" agent="Mozilla/5.0 (Macintosh; Intel Mac OS X 10_15_7) AppleWebKit/605.1.15 (KHTML, like Gecko) Version/18.1 Safari/605.1.15" version="26.1.1">
  <diagram name="Page-1" id="db6TGA7AToHwxHXsXOP5">
    <mxGraphModel dx="838" dy="593" grid="1" gridSize="10" guides="1" tooltips="1" connect="1" arrows="1" fold="1" page="1" pageScale="1" pageWidth="850" pageHeight="1100" math="0" shadow="0">
      <root>
        <mxCell id="0" />
        <mxCell id="1" parent="0" />
        <mxCell id="RgqcaIm8LPf0xgxE9352-14" style="edgeStyle=orthogonalEdgeStyle;rounded=0;orthogonalLoop=1;jettySize=auto;html=1;exitX=1;exitY=0.5;exitDx=0;exitDy=0;entryX=0;entryY=0.5;entryDx=0;entryDy=0;" edge="1" parent="1" source="RgqcaIm8LPf0xgxE9352-1" target="RgqcaIm8LPf0xgxE9352-3">
          <mxGeometry relative="1" as="geometry" />
        </mxCell>
        <mxCell id="RgqcaIm8LPf0xgxE9352-35" style="edgeStyle=orthogonalEdgeStyle;rounded=0;orthogonalLoop=1;jettySize=auto;html=1;exitX=0.25;exitY=0;exitDx=0;exitDy=0;entryX=0.5;entryY=1;entryDx=0;entryDy=0;" edge="1" parent="1" source="RgqcaIm8LPf0xgxE9352-1" target="RgqcaIm8LPf0xgxE9352-2">
          <mxGeometry relative="1" as="geometry" />
        </mxCell>
        <mxCell id="RgqcaIm8LPf0xgxE9352-38" style="edgeStyle=orthogonalEdgeStyle;rounded=0;orthogonalLoop=1;jettySize=auto;html=1;exitX=0.75;exitY=1;exitDx=0;exitDy=0;entryX=0;entryY=0.5;entryDx=0;entryDy=0;" edge="1" parent="1" source="RgqcaIm8LPf0xgxE9352-1" target="RgqcaIm8LPf0xgxE9352-26">
          <mxGeometry relative="1" as="geometry" />
        </mxCell>
        <mxCell id="RgqcaIm8LPf0xgxE9352-1" value="User" style="rounded=1;whiteSpace=wrap;html=1;" vertex="1" parent="1">
          <mxGeometry x="160" y="200" width="80" height="40" as="geometry" />
        </mxCell>
        <mxCell id="RgqcaIm8LPf0xgxE9352-34" style="edgeStyle=orthogonalEdgeStyle;rounded=0;orthogonalLoop=1;jettySize=auto;html=1;exitX=0.5;exitY=1;exitDx=0;exitDy=0;entryX=0.25;entryY=0;entryDx=0;entryDy=0;" edge="1" parent="1" source="RgqcaIm8LPf0xgxE9352-2" target="RgqcaIm8LPf0xgxE9352-1">
          <mxGeometry relative="1" as="geometry" />
        </mxCell>
        <mxCell id="RgqcaIm8LPf0xgxE9352-2" value="DNS" style="rounded=1;whiteSpace=wrap;html=1;" vertex="1" parent="1">
          <mxGeometry x="40" y="80" width="80" height="40" as="geometry" />
        </mxCell>
        <mxCell id="RgqcaIm8LPf0xgxE9352-15" style="edgeStyle=orthogonalEdgeStyle;rounded=0;orthogonalLoop=1;jettySize=auto;html=1;exitX=1;exitY=0.5;exitDx=0;exitDy=0;" edge="1" parent="1" source="RgqcaIm8LPf0xgxE9352-3" target="RgqcaIm8LPf0xgxE9352-4">
          <mxGeometry relative="1" as="geometry" />
        </mxCell>
        <mxCell id="RgqcaIm8LPf0xgxE9352-3" value="Load balancer" style="rounded=1;whiteSpace=wrap;html=1;" vertex="1" parent="1">
          <mxGeometry x="320" y="200" width="80" height="40" as="geometry" />
        </mxCell>
        <mxCell id="RgqcaIm8LPf0xgxE9352-16" style="edgeStyle=orthogonalEdgeStyle;rounded=0;orthogonalLoop=1;jettySize=auto;html=1;exitX=1;exitY=0.5;exitDx=0;exitDy=0;entryX=0;entryY=0.5;entryDx=0;entryDy=0;" edge="1" parent="1" source="RgqcaIm8LPf0xgxE9352-4" target="RgqcaIm8LPf0xgxE9352-6">
          <mxGeometry relative="1" as="geometry" />
        </mxCell>
        <mxCell id="RgqcaIm8LPf0xgxE9352-17" style="edgeStyle=orthogonalEdgeStyle;rounded=0;orthogonalLoop=1;jettySize=auto;html=1;exitX=0.5;exitY=1;exitDx=0;exitDy=0;entryX=0.5;entryY=0;entryDx=0;entryDy=0;" edge="1" parent="1" source="RgqcaIm8LPf0xgxE9352-4" target="RgqcaIm8LPf0xgxE9352-7">
          <mxGeometry relative="1" as="geometry" />
        </mxCell>
        <mxCell id="RgqcaIm8LPf0xgxE9352-4" value="API gateway" style="rounded=1;whiteSpace=wrap;html=1;" vertex="1" parent="1">
          <mxGeometry x="480" y="200" width="80" height="40" as="geometry" />
        </mxCell>
        <mxCell id="RgqcaIm8LPf0xgxE9352-27" style="edgeStyle=orthogonalEdgeStyle;rounded=0;orthogonalLoop=1;jettySize=auto;html=1;exitX=1;exitY=0.5;exitDx=0;exitDy=0;entryX=0.5;entryY=0;entryDx=0;entryDy=0;" edge="1" parent="1" source="RgqcaIm8LPf0xgxE9352-5" target="RgqcaIm8LPf0xgxE9352-20">
          <mxGeometry relative="1" as="geometry" />
        </mxCell>
        <mxCell id="RgqcaIm8LPf0xgxE9352-36" style="edgeStyle=orthogonalEdgeStyle;rounded=0;orthogonalLoop=1;jettySize=auto;html=1;exitX=0;exitY=0.5;exitDx=0;exitDy=0;entryX=0.75;entryY=0;entryDx=0;entryDy=0;" edge="1" parent="1" source="RgqcaIm8LPf0xgxE9352-5" target="RgqcaIm8LPf0xgxE9352-1">
          <mxGeometry relative="1" as="geometry" />
        </mxCell>
        <mxCell id="RgqcaIm8LPf0xgxE9352-5" value="Notification service" style="rounded=1;whiteSpace=wrap;html=1;" vertex="1" parent="1">
          <mxGeometry x="640" y="80" width="80" height="40" as="geometry" />
        </mxCell>
        <mxCell id="RgqcaIm8LPf0xgxE9352-28" style="edgeStyle=orthogonalEdgeStyle;rounded=0;orthogonalLoop=1;jettySize=auto;html=1;exitX=1;exitY=0.5;exitDx=0;exitDy=0;entryX=0;entryY=0.5;entryDx=0;entryDy=0;" edge="1" parent="1" source="RgqcaIm8LPf0xgxE9352-6" target="RgqcaIm8LPf0xgxE9352-20">
          <mxGeometry relative="1" as="geometry" />
        </mxCell>
        <mxCell id="RgqcaIm8LPf0xgxE9352-6" value="Feed service" style="rounded=1;whiteSpace=wrap;html=1;" vertex="1" parent="1">
          <mxGeometry x="640" y="200" width="80" height="40" as="geometry" />
        </mxCell>
        <mxCell id="RgqcaIm8LPf0xgxE9352-9" style="edgeStyle=orthogonalEdgeStyle;rounded=0;orthogonalLoop=1;jettySize=auto;html=1;exitX=0;exitY=0.5;exitDx=0;exitDy=0;entryX=1;entryY=0.5;entryDx=0;entryDy=0;" edge="1" parent="1" source="RgqcaIm8LPf0xgxE9352-7" target="RgqcaIm8LPf0xgxE9352-8">
          <mxGeometry relative="1" as="geometry" />
        </mxCell>
        <mxCell id="RgqcaIm8LPf0xgxE9352-29" style="edgeStyle=orthogonalEdgeStyle;rounded=0;orthogonalLoop=1;jettySize=auto;html=1;exitX=1;exitY=0.5;exitDx=0;exitDy=0;entryX=0;entryY=0.5;entryDx=0;entryDy=0;" edge="1" parent="1" source="RgqcaIm8LPf0xgxE9352-7" target="RgqcaIm8LPf0xgxE9352-22">
          <mxGeometry relative="1" as="geometry" />
        </mxCell>
        <mxCell id="RgqcaIm8LPf0xgxE9352-7" value="Video service" style="rounded=1;whiteSpace=wrap;html=1;" vertex="1" parent="1">
          <mxGeometry x="640" y="320" width="80" height="40" as="geometry" />
        </mxCell>
        <mxCell id="RgqcaIm8LPf0xgxE9352-33" style="edgeStyle=orthogonalEdgeStyle;rounded=0;orthogonalLoop=1;jettySize=auto;html=1;exitX=0.5;exitY=0;exitDx=0;exitDy=0;entryX=0.25;entryY=1;entryDx=0;entryDy=0;" edge="1" parent="1" source="RgqcaIm8LPf0xgxE9352-8" target="RgqcaIm8LPf0xgxE9352-1">
          <mxGeometry relative="1" as="geometry" />
        </mxCell>
        <mxCell id="RgqcaIm8LPf0xgxE9352-8" value="CDN" style="rounded=1;whiteSpace=wrap;html=1;" vertex="1" parent="1">
          <mxGeometry x="40" y="320" width="80" height="40" as="geometry" />
        </mxCell>
        <mxCell id="RgqcaIm8LPf0xgxE9352-20" value="" style="swimlane;startSize=0;" vertex="1" parent="1">
          <mxGeometry x="800" y="160" width="160" height="120" as="geometry" />
        </mxCell>
        <mxCell id="RgqcaIm8LPf0xgxE9352-21" value="DB" style="rounded=1;whiteSpace=wrap;html=1;" vertex="1" parent="RgqcaIm8LPf0xgxE9352-20">
          <mxGeometry x="40" y="40" width="80" height="40" as="geometry" />
        </mxCell>
        <mxCell id="RgqcaIm8LPf0xgxE9352-22" value="Replicas distributed to different zones/regions" style="text;html=1;align=center;verticalAlign=middle;whiteSpace=wrap;rounded=0;" vertex="1" parent="RgqcaIm8LPf0xgxE9352-20">
          <mxGeometry y="80" width="160" height="40" as="geometry" />
        </mxCell>
        <mxCell id="RgqcaIm8LPf0xgxE9352-24" style="edgeStyle=orthogonalEdgeStyle;rounded=0;orthogonalLoop=1;jettySize=auto;html=1;exitX=0.5;exitY=0;exitDx=0;exitDy=0;entryX=0.5;entryY=1;entryDx=0;entryDy=0;" edge="1" parent="1" source="RgqcaIm8LPf0xgxE9352-23" target="RgqcaIm8LPf0xgxE9352-22">
          <mxGeometry relative="1" as="geometry" />
        </mxCell>
        <mxCell id="RgqcaIm8LPf0xgxE9352-23" value="ID generator" style="rounded=1;whiteSpace=wrap;html=1;" vertex="1" parent="1">
          <mxGeometry x="840" y="440" width="80" height="40" as="geometry" />
        </mxCell>
        <mxCell id="RgqcaIm8LPf0xgxE9352-25" style="edgeStyle=orthogonalEdgeStyle;rounded=0;orthogonalLoop=1;jettySize=auto;html=1;exitX=0.5;exitY=1;exitDx=0;exitDy=0;entryX=0.5;entryY=0;entryDx=0;entryDy=0;" edge="1" parent="1" source="RgqcaIm8LPf0xgxE9352-22" target="RgqcaIm8LPf0xgxE9352-23">
          <mxGeometry relative="1" as="geometry" />
        </mxCell>
        <mxCell id="RgqcaIm8LPf0xgxE9352-30" style="edgeStyle=orthogonalEdgeStyle;rounded=0;orthogonalLoop=1;jettySize=auto;html=1;exitX=0.5;exitY=0;exitDx=0;exitDy=0;entryX=0.25;entryY=1;entryDx=0;entryDy=0;" edge="1" parent="1" source="RgqcaIm8LPf0xgxE9352-26" target="RgqcaIm8LPf0xgxE9352-22">
          <mxGeometry relative="1" as="geometry">
            <Array as="points">
              <mxPoint x="680" y="400" />
              <mxPoint x="840" y="400" />
            </Array>
          </mxGeometry>
        </mxCell>
        <mxCell id="RgqcaIm8LPf0xgxE9352-37" style="edgeStyle=orthogonalEdgeStyle;rounded=0;orthogonalLoop=1;jettySize=auto;html=1;exitX=0;exitY=0.5;exitDx=0;exitDy=0;entryX=0.75;entryY=1;entryDx=0;entryDy=0;" edge="1" parent="1" source="RgqcaIm8LPf0xgxE9352-26" target="RgqcaIm8LPf0xgxE9352-1">
          <mxGeometry relative="1" as="geometry" />
        </mxCell>
        <mxCell id="RgqcaIm8LPf0xgxE9352-26" value="Messaging service" style="rounded=1;whiteSpace=wrap;html=1;" vertex="1" parent="1">
          <mxGeometry x="640" y="440" width="80" height="40" as="geometry" />
        </mxCell>
      </root>
    </mxGraphModel>
  </diagram>
</mxfile>
